<svg xmlns="http://www.w3.org/2000/svg" viewBox="0 0 100 100"><path fill="#f870ff" d="M87.5 50.92c0 23.04-18.12 41.67-40.54 41.67-2.75 0-5.46-.42-8.04-1.12-2.71 2.5-6.58 4.5-10.83 4.5-6.67 0-12.08-5.42-12.08-12.08 0-3.42 1.83-6.37 4.67-8.33-2.92-3.79-4.67-8.29-4.67-12.92 0-16.12 13.04-29.17 29.17-29.17 1.41 0 2.79.12 4.16.29V12.5l25 4.17-25-4.17v12.83c20.62 1.88 41.66 16.59 41.66 35.5v-20.83zM45.83 41.67c-11.5 0-20.83 9.33-20.83 20.83 0 4.38 1.41 8.42 3.71 11.71 2.25.54 4.96 1.08 7.37 1.38 2.08-3.42 4.25-6.12 6.75-7.29V41.67z"/></svg>